<!DOCTYPE svg PUBLIC "-//W3C//DTD SVG 1.1//EN" "http://www.w3.org/Graphics/SVG/1.1/DTD/svg11.dtd">
<!-- Uploaded to: SVG Repo, www.svgrepo.com, Transformed by: SVG Repo Mixer Tools -->
<svg width="800px" height="800px" viewBox="-2.4 -2.4 28.80 28.80" fill="none" xmlns="http://www.w3.org/2000/svg">
<g id="SVGRepo_bgCarrier" stroke-width="0" transform="translate(6.36,6.36), scale(0.47)">
<rect x="-2.4" y="-2.4" width="28.80" height="28.80" rx="14.4" fill="#ffffff" strokewidth="0"/>
</g>
<g id="SVGRepo_tracerCarrier" stroke-linecap="round" stroke-linejoin="round"/>
<g id="SVGRepo_iconCarrier"> <path fill-rule="evenodd" clip-rule="evenodd" d="M12 22C17.5228 22 22 17.5228 22 12C22 6.47715 17.5228 2 12 2C6.47715 2 2 6.47715 2 12C2 17.5228 6.47715 22 12 22ZM14.5981 10.4999C14.0241 9.50566 11.0229 7.85497 9.66659 7.14526C9.35019 6.97969 8.97741 7.19492 8.96259 7.55171C8.89909 9.08112 8.82799 12.5057 9.40199 13.4999C9.976 14.4941 12.9773 16.1448 14.3335 16.8545C14.6499 17.02 15.0227 16.8048 15.0375 16.448C15.101 14.9186 15.1721 11.4941 14.5981 10.4999Z" fill="#008cff"/> </g>
</svg>