<!DOCTYPE svg PUBLIC "-//W3C//DTD SVG 1.1//EN" "http://www.w3.org/Graphics/SVG/1.1/DTD/svg11.dtd">
<!-- Uploaded to: SVG Repo, www.svgrepo.com, Transformed by: SVG Repo Mixer Tools -->
<svg version="1.1" id="Uploaded to svgrepo.com" xmlns="http://www.w3.org/2000/svg" xmlns:xlink="http://www.w3.org/1999/xlink" width="800px" height="800px" viewBox="0 0 32 32" xml:space="preserve" fill="#000000">
<g id="SVGRepo_bgCarrier" stroke-width="0"/>
<g id="SVGRepo_tracerCarrier" stroke-linecap="round" stroke-linejoin="round"/>
<g id="SVGRepo_iconCarrier"> <style type="text/css"> .stone_een{fill:#ffffff;} .st0{fill:#0B1719;} </style> <path class="stone_een" d="M18,16h9v10c0,1.657-1.343,3-3,3H8c-1.657,0-3-1.343-3-3V16h9v1c0,0.552,0.448,1,1,1h2 c0.552,0,1-0.448,1-1V16z M17,14h-2v3h2V14z M27,12v3h-9v-1c0-0.552-0.448-1-1-1h-2c-0.552,0-1,0.448-1,1v1H5v-3 c0-1.657,1.343-3,3-3h4V4c-0.552,0-1-0.448-1-1c0-1.657,1.343-3,3-3h4c1.657,0,3,1.343,3,3c0,0.552-0.448,1-1,1v5h4 C25.657,9,27,10.343,27,12z M19,4c-0.552,0-1-0.448-1-1h-4c0,0.552-0.448,1-1,1v5h6V4z M22,32c1.105,0,2-0.895,2-2h-4 C20,31.105,20.895,32,22,32z M10,32c1.105,0,2-0.895,2-2H8C8,31.105,8.895,32,10,32z"/> </g>
</svg>